<svg width="56" height="56" viewBox="0 0 56 56" fill="none" xmlns="http://www.w3.org/2000/svg">
<path d="M39.7834 47.32C37.4967 49.5367 35.0001 49.1867 32.5967 48.1367C30.0534 47.0633 27.7201 47.0167 25.0367 48.1367C21.6767 49.5833 19.9034 49.1633 17.8967 47.32C6.51006 35.5833 8.19006 17.71 21.1167 17.0567C24.2667 17.22 26.4601 18.7833 28.3034 18.9233C31.0567 18.3633 33.6934 16.7533 36.6334 16.9633C40.1567 17.2433 42.8167 18.6433 44.5667 21.1633C37.2867 25.5267 39.0134 35.1167 45.6867 37.8C44.3567 41.3 42.6301 44.7767 39.7601 47.3433L39.7834 47.32ZM28.0701 16.9167C27.7201 11.7133 31.9434 7.42 36.7967 7C37.4734 13.02 31.3367 17.5 28.0701 16.9167Z" fill="white"/>
</svg>
