<svg width="50" height="62" viewBox="0 0 50 62" fill="none" xmlns="http://www.w3.org/2000/svg">
<g clip-path="url(#clip0_104596_6862)">
<path d="M23.3302 32.3672L-0.117188 56.933C0.146124 57.8661 0.619304 58.7267 1.26618 59.4489C1.91306 60.1712 2.7165 60.736 3.6151 61.1001C4.5137 61.4642 5.48366 61.6181 6.45084 61.5499C7.41802 61.4818 8.3568 61.1933 9.19544 60.7067L35.5782 45.6809L23.3302 32.3672Z" fill="#0D0D0D" fill-opacity="0.5"/>
<path d="M47.0398 28.1949L35.6311 21.6602L22.7891 32.9294L35.6833 45.6491L47.0052 39.1844C48.0082 38.6592 48.8483 37.8695 49.4345 36.9009C50.0206 35.9323 50.3305 34.8217 50.3305 33.6896C50.3305 32.5574 50.0206 31.4468 49.4345 30.4782C48.8483 29.5096 48.0082 28.7199 47.0052 28.1947L47.0398 28.1949Z" fill="#CBCBCB"/>
<path d="M-0.118311 10.3203C-0.259955 10.8443 -0.330504 11.3849 -0.328064 11.9277V55.3281C-0.326665 55.8707 -0.256181 56.4109 -0.118311 56.9357L24.1329 32.9989L-0.118311 10.3203Z" fill="#CBCBCB"/>
<path d="M23.5049 33.6272L35.6306 21.6588L9.2829 6.56294C8.29157 5.9824 7.16411 5.67495 6.01531 5.67189C3.16445 5.66635 0.658106 7.55847 -0.117188 10.3021L23.5049 33.6272Z" fill="white"/>
</g>
<defs>
<clipPath id="clip0_104596_6862">
<rect width="50" height="62" fill="white"/>
</clipPath>
</defs>
</svg>
