<svg width="21" height="24" viewBox="0 0 21 24" fill="none" xmlns="http://www.w3.org/2000/svg">
<path d="M16.8494 23.04C15.5428 24.3067 14.1161 24.1067 12.7428 23.5067C11.2894 22.8933 9.9561 22.8667 8.42277 23.5067C6.50277 24.3333 5.48944 24.0933 4.34277 23.04C-2.1639 16.3333 -1.2039 6.12 6.18277 5.74667C7.98277 5.84 9.2361 6.73333 10.2894 6.81333C11.8628 6.49333 13.3694 5.57333 15.0494 5.69333C17.0628 5.85333 18.5828 6.65333 19.5828 8.09333C15.4228 10.5867 16.4094 16.0667 20.2228 17.6C19.4628 19.6 18.4761 21.5867 16.8361 23.0533L16.8494 23.04ZM10.1561 5.66667C9.9561 2.69333 12.3694 0.24 15.1428 0C15.5294 3.44 12.0228 6 10.1561 5.66667Z" fill="white"/>
</svg>
