<svg width="33" height="32" viewBox="0 0 33 32" fill="none" xmlns="http://www.w3.org/2000/svg">
<path d="M16.25 32C25.2246 32 32.5 24.8366 32.5 16C32.5 7.16344 25.2246 0 16.25 0C7.27537 0 0 7.16344 0 16C0 24.8366 7.27537 32 16.25 32Z" fill="#F79E1B"/>
<path fill-rule="evenodd" clip-rule="evenodd" d="M14.793 8.38687L15.5843 5.57031L17.3492 6.04963L16.6797 8.80629L18.0795 9.16582L18.8098 6.34927L20.5749 6.82877C20.3479 7.63334 20.1886 8.27132 20.0213 8.94137C19.9644 9.16933 19.9064 9.40189 19.8446 9.64514C24.1048 11.0236 23.4963 13.4804 23.3136 14.1995C23.0662 15.1741 22.3398 15.9973 21.1836 16.297C23.3136 17.3756 23.1695 19.3531 22.7658 20.4317C22.3623 21.5105 21.4879 23.8475 16.4972 22.8887L15.7667 25.825L13.941 25.4056L14.6105 22.5292L13.2715 22.1696L12.5412 25.0459L10.7153 24.6265L11.4456 21.75L7.97656 20.7912L8.76769 18.7538C9.13284 18.8738 9.89047 19.0901 9.98498 19.1133C10.4718 19.2333 10.7394 18.946 10.8371 18.7538C10.898 18.634 12.9356 10.9108 12.9672 10.7239C13.028 10.3644 12.8455 9.96487 12.4194 9.825C12.2734 9.77708 11.2631 9.52536 10.7761 9.40557L11.2631 7.54783L14.793 8.38687ZM15.2799 14.3793L16.1929 11.0236C19.6011 11.5628 20.1302 12.6655 19.8446 13.7201C19.6011 14.6191 18.6881 15.5178 15.2799 14.3793ZM14.854 16.297L13.8193 19.9524C17.6711 21.2149 18.9608 20.3499 19.236 19.3531C19.5588 18.1836 18.7057 16.8949 14.854 16.297Z" fill="white"/>
</svg>
