<svg width="24" height="30" viewBox="0 0 24 30" fill="none" xmlns="http://www.w3.org/2000/svg">
<g clip-path="url(#clip0_104722_11472)">
<path d="M11.2001 15.6602L-0.0546875 27.5468C0.0717022 27.9984 0.298828 28.4148 0.609329 28.7642C0.91983 29.1137 1.30548 29.387 1.73681 29.5632C2.16814 29.7394 2.63372 29.8138 3.09797 29.7808C3.56221 29.7479 4.01283 29.6083 4.41537 29.3728L17.0791 22.1023L11.2001 15.6602Z" fill="white" fill-opacity="0.2"/>
<path d="M22.5779 13.6425L17.1017 10.4805L10.9375 15.9333L17.1267 22.088L22.5612 18.9599C23.0427 18.7058 23.4459 18.3237 23.7273 17.855C24.0087 17.3863 24.1574 16.849 24.1574 16.3012C24.1574 15.7533 24.0087 15.216 23.7273 14.7473C23.4459 14.2786 23.0427 13.8965 22.5612 13.6424L22.5779 13.6425Z" fill="white" fill-opacity="0.8"/>
<path d="M-0.0555393 4.99219C-0.123528 5.24572 -0.157392 5.50732 -0.156221 5.76995V26.7701C-0.155549 27.0327 -0.121717 27.2941 -0.0555393 27.548L11.585 15.9657L-0.0555393 4.99219Z" fill="black" fill-opacity="0.3"/>
<path d="M11.2839 16.2728L17.1043 10.4817L4.45735 3.17725C3.98152 2.89635 3.44033 2.74758 2.88891 2.7461C1.5205 2.74342 0.317453 3.65896 -0.0546875 4.98651L11.2839 16.2728Z" fill="white"/>
</g>
<defs>
<clipPath id="clip0_104722_11472">
<rect width="24" height="30" fill="white"/>
</clipPath>
</defs>
</svg>
