<svg width="40" height="25" viewBox="0 0 40 25" fill="none" xmlns="http://www.w3.org/2000/svg">
<path d="M14.5781 2.63281H25.3828V21.9885H14.5781V2.63281Z" fill="#FF5F00"/>
<path d="M15.2639 12.3111C15.2639 8.37841 17.1161 4.89021 19.963 2.63313C17.8708 0.991688 15.2297 0 12.3484 0C5.52234 0 0 5.50569 0 12.3111C0 19.1164 5.52234 24.6221 12.3483 24.6221C15.2295 24.6221 17.8706 23.6304 19.963 21.9888C17.1161 19.766 15.2639 16.2437 15.2639 12.3111Z" fill="#FF0000"/>
<path d="M39.963 12.3111C39.963 19.1163 34.4406 24.6221 27.6147 24.6221C24.7334 24.6221 22.0923 23.6304 20 21.9888C22.8813 19.7319 24.6992 16.2437 24.6992 12.3111C24.6992 8.37841 22.8469 4.89021 20 2.63313C22.0922 0.991688 24.7334 0 27.6147 0C34.4406 0 39.963 5.53997 39.963 12.3111Z" fill="#F79E1B"/>
</svg>
