<svg width="70" height="34" viewBox="0 0 70 34" fill="none" xmlns="http://www.w3.org/2000/svg">
<g clip-path="url(#clip0_104722_11507)">
<rect width="70" height="34" fill="white"/>
<path d="M26.5 25.6329L30 7.63281H34L30.5 25.6329H26.5Z" fill="#0000EE"/>
<path d="M13 11.1314C12.2896 9.00008 9.5 7.63133 7 7.63133C11.5 7.63133 16.0661 6.89589 16.5 8.63133C17 10.6314 18.5 16.5001 19.5 20.0001L24 7.63133H28.5L21 25.6314H16.5C15.6667 21.4647 13.4 12.3314 13 11.1314Z" fill="#0000EE"/>
<path d="M41.3914 20.4053C41.7339 17.5318 34.1752 17.4027 35.055 12.2609C35.9575 6.98665 43.4465 6.01087 47 7.86536L46.2722 11.7068C46.1437 10.6913 40.4924 9.85231 39.7645 12.2609C39.0453 14.641 46.9249 14.9179 46.1865 20.2321C45.4325 25.6597 38.737 27.3817 33 24.8649C33.3425 23.3636 33.4251 22.5735 33.9419 20.9793C35.7401 22.2598 41.0489 23.2787 41.3914 20.4053Z" fill="#0000EE"/>
<path fill-rule="evenodd" clip-rule="evenodd" d="M53.7096 7.61719L46.2422 25.6346H51.1047L52.1032 22.9428H58.1814L58.659 25.6346H63.0005L59.2234 7.61719H53.7096ZM55.3148 13.8988L53.2209 19.6569H57.4086L56.3617 13.8988H55.3148Z" fill="#0000EE"/>
</g>
<defs>
<clipPath id="clip0_104722_11507">
<rect width="70" height="34" fill="white"/>
</clipPath>
</defs>
</svg>
