<svg width="6" height="203" viewBox="0 0 6 203" fill="none" xmlns="http://www.w3.org/2000/svg">
<path d="M2.66675 -0.00016284C1.19399 -0.000162904 8.13653e-05 1.19374 8.13007e-05 2.6665C8.12362e-05 4.13926 1.19399 5.33317 2.66675 5.33317C4.13951 5.33317 5.33341 4.13926 5.33341 2.6665C5.33341 1.19374 4.13951 -0.000162776 2.66675 -0.00016284ZM2.66674 196.824C1.19398 196.824 7.27418e-05 198.018 7.26772e-05 199.49C7.26127e-05 200.963 1.19398 202.157 2.66674 202.157C4.1395 202.157 5.33341 200.963 5.33341 199.49C5.33341 198.018 4.1395 196.824 2.66674 196.824ZM2.66675 2.6665L2.16675 2.6665L2.16674 199.49L2.66674 199.49L3.16674 199.49L3.16675 2.6665L2.66675 2.6665Z" fill="white" fill-opacity="0.3"/>
</svg>
