<svg width="6" height="306" xmlns="http://www.w3.org/2000/svg">
 <defs>
  <linearGradient y2="0.00873" x2="0.40625" y1="0.99127" x1="0.40625" id="paint0_linear_104722_30827">
   <stop stop-color="#181818"/>
   <stop stop-color="white" offset="1"/>
  </linearGradient>
 </defs>
 <g>
  <title>background</title>
  <rect fill="none" id="canvas_background" height="602" width="802" y="-1" x="-1"/>
 </g>
 <g>
  <title>Layer 1</title>
  <path id="svg_1" fill-opacity="0.3" fill="url(#paint0_linear_104722_30827)" d="m2.66675,-0.00016c-1.47276,0 -2.66667,1.1939 -2.66667,2.66666c0,1.47276 1.19391,2.66667 2.66667,2.66667c1.47276,0 2.66666,-1.19391 2.66666,-2.66667c0,-1.47276 -1.1939,-2.66666 -2.66666,-2.66666zm-0.00001,300.00016c-1.47276,0 -2.66667,1.194 -2.66667,2.667c0,1.472 1.19391,2.666 2.66666,2.666c1.47276,0 2.66667,-1.194 2.66667,-2.666c0,-1.473 -1.19391,-2.667 -2.66666,-2.667zm0.00001,-297.3335l-0.5,0l-0.00002,300.0005l0.5,0l0.5,0l0.00002,-300.0005l-0.5,0z"/>
 </g>
</svg>