<svg width="6" height="206" viewBox="0 0 6 206" fill="none" xmlns="http://www.w3.org/2000/svg">
<path d="M2.66675 -0.00016284C1.19399 -0.000162904 8.13653e-05 1.19374 8.13007e-05 2.6665C8.12362e-05 4.13926 1.19399 5.33317 2.66675 5.33317C4.13951 5.33317 5.33341 4.13926 5.33341 2.6665C5.33341 1.19374 4.13951 -0.000162776 2.66675 -0.00016284ZM2.66674 199.821C1.19398 199.821 7.26027e-05 201.015 7.25381e-05 202.488C7.24735e-05 203.96 1.19398 205.154 2.66674 205.154C4.1395 205.154 5.33341 203.96 5.33341 202.488C5.33341 201.015 4.1395 199.821 2.66674 199.821ZM2.66675 2.6665L2.16675 2.6665L2.16674 202.488L2.66674 202.488L3.16674 202.488L3.16675 2.6665L2.66675 2.6665Z" fill="white" fill-opacity="0.3"/>
</svg>
