<svg width="6" height="150" viewBox="0 0 6 150" fill="none" xmlns="http://www.w3.org/2000/svg">
<path d="M2.66675 -0.00016284C1.19399 -0.000162886 8.13903e-05 1.19374 8.13007e-05 2.6665C8.12112e-05 4.13926 1.19399 5.33317 2.66675 5.33317C4.13951 5.33317 5.33341 4.13926 5.33341 2.6665C5.33341 1.19374 4.13951 -0.000162794 2.66675 -0.00016284ZM2.66674 144.149C1.19398 144.149 7.26276e-05 145.343 7.25381e-05 146.816C7.24485e-05 148.289 1.19398 149.483 2.66674 149.483C4.1395 149.483 5.33341 148.289 5.33341 146.816C5.33341 145.343 4.1395 144.149 2.66674 144.149ZM2.66675 2.6665L2.16675 2.6665L2.16674 146.816L2.66674 146.816L3.16674 146.816L3.16675 2.6665L2.66675 2.6665Z" fill="white" fill-opacity="0.3"/>
</svg>
