<svg width="6" height="191" viewBox="0 0 6 191" fill="none" xmlns="http://www.w3.org/2000/svg">
<path d="M2.66675 -0.00016284C1.19399 -0.000162904 8.13653e-05 1.19374 8.13007e-05 2.6665C8.12362e-05 4.13926 1.19399 5.33317 2.66675 5.33317C4.13951 5.33317 5.33341 4.13926 5.33341 2.6665C5.33341 1.19374 4.13951 -0.000162776 2.66675 -0.00016284ZM2.66674 184.834C1.19398 184.834 7.3267e-05 186.028 7.32025e-05 187.501C7.3138e-05 188.974 1.19398 190.168 2.66674 190.168C4.1395 190.168 5.33341 188.974 5.33341 187.501C5.33341 186.028 4.1395 184.834 2.66674 184.834ZM2.66675 2.6665L2.16675 2.6665L2.16674 187.501L2.66674 187.501L3.16674 187.501L3.16675 2.6665L2.66675 2.6665Z" fill="white" fill-opacity="0.3"/>
</svg>
