<svg width="6" height="306" viewBox="0 0 6 306" fill="none" xmlns="http://www.w3.org/2000/svg">
<path d="M2.66669 -0.00016284C1.19393 -0.000162904 2.03301e-05 1.19374 2.02656e-05 2.6665C2.02011e-05 4.13926 1.19393 5.33317 2.66669 5.33317C4.13945 5.33317 5.33335 4.13926 5.33335 2.6665C5.33335 1.19374 4.13945 -0.000162776 2.66669 -0.00016284ZM2.66667 300C1.19391 300 7.18612e-06 301.194 7.12159e-06 302.667C7.05706e-06 304.139 1.19391 305.333 2.66667 305.333C4.13943 305.333 5.33334 304.139 5.33334 302.667C5.33334 301.194 4.13943 300 2.66667 300ZM2.66669 2.6665L2.16669 2.6665L2.16667 302.667L2.66667 302.667L3.16667 302.667L3.16669 2.6665L2.66669 2.6665Z" fill="white" fill-opacity="0.3"/>
</svg>
