<svg width="64" height="64" viewBox="0 0 64 64" fill="none" xmlns="http://www.w3.org/2000/svg">
<rect width="64" height="64" rx="2" fill="white" fill-opacity="0.05"/>
<g clip-path="url(#clip0_104593_18649)">
<path d="M39.5 48.2501C39.5 48.5816 39.3683 48.8995 39.1338 49.134C38.8994 49.3684 38.5815 49.5001 38.25 49.5001H25.75C25.4184 49.5001 25.1005 49.3684 24.8661 49.134C24.6317 48.8995 24.5 48.5816 24.5 48.2501C24.5 47.9186 24.6317 47.6006 24.8661 47.3662C25.1005 47.1318 25.4184 47.0001 25.75 47.0001H38.25C38.5815 47.0001 38.8994 47.1318 39.1338 47.3662C39.3683 47.6006 39.5 47.9186 39.5 48.2501ZM45.75 28.2501C45.7553 30.3339 45.2846 32.3914 44.3737 34.2656C43.4627 36.1397 42.1356 37.781 40.4937 39.0641C40.1867 39.2995 39.9376 39.6019 39.7653 39.9482C39.5931 40.2946 39.5023 40.6758 39.5 41.0626V42.0001C39.5 42.6631 39.2366 43.299 38.7677 43.7679C38.2989 44.2367 37.663 44.5001 37 44.5001H27C26.3369 44.5001 25.701 44.2367 25.2322 43.7679C24.7634 43.299 24.5 42.6631 24.5 42.0001V41.0626C24.4997 40.6804 24.4118 40.3033 24.2431 39.9604C24.0743 39.6175 23.8292 39.3178 23.5265 39.0845C21.8887 37.8089 20.5625 36.1775 19.6484 34.3137C18.7342 32.4499 18.256 30.4026 18.25 28.3266C18.2093 20.8798 24.2281 14.6782 31.6687 14.5001C33.5021 14.4559 35.3257 14.7789 37.0324 15.4501C38.739 16.1213 40.2942 17.1271 41.6063 18.4084C42.9184 19.6896 43.9609 21.2203 44.6725 22.9105C45.3842 24.6007 45.7505 26.4162 45.75 28.2501ZM37.8843 28.6157C37.7682 28.4995 37.6304 28.4073 37.4786 28.3444C37.3269 28.2815 37.1642 28.2491 37 28.2491C36.8357 28.2491 36.673 28.2815 36.5213 28.3444C36.3695 28.4073 36.2317 28.4995 36.1156 28.6157L32 32.7329L27.8843 28.6157C27.6498 28.3812 27.3317 28.2494 27 28.2494C26.6683 28.2494 26.3501 28.3812 26.1156 28.6157C25.881 28.8503 25.7493 29.1684 25.7493 29.5001C25.7493 29.8318 25.881 30.1499 26.1156 30.3845L30.75 35.0173V40.7501C30.75 41.0816 30.8817 41.3995 31.1161 41.634C31.3505 41.8684 31.6684 42.0001 32 42.0001C32.3315 42.0001 32.6494 41.8684 32.8838 41.634C33.1183 41.3995 33.25 41.0816 33.25 40.7501V35.0173L37.8843 30.3845C38.0006 30.2684 38.0928 30.1305 38.1557 29.9788C38.2186 29.827 38.2509 29.6644 38.2509 29.5001C38.2509 29.3358 38.2186 29.1732 38.1557 29.0214C38.0928 28.8697 38.0006 28.7318 37.8843 28.6157Z" fill="#0000EE"/>
</g>
<defs>
<clipPath id="clip0_104593_18649">
<rect width="40" height="40" fill="white" transform="translate(12 12)"/>
</clipPath>
</defs>
</svg>
