<svg width="64" height="64" viewBox="0 0 64 64" fill="none" xmlns="http://www.w3.org/2000/svg">
<rect width="64" height="64" rx="2" fill="white" fill-opacity="0.05"/>
<g clip-path="url(#clip0_104593_18635)">
<path d="M16.8362 36.9978L22.9175 26.4618L22.5675 25.8556C22.0443 24.9778 21.706 24.0024 21.5734 22.9892C21.4407 21.976 21.5165 20.9464 21.7961 19.9635C22.0757 18.9807 22.5532 18.0653 23.1992 17.2737C23.8453 16.482 24.6464 15.8307 25.5532 15.3597C26.4601 14.8887 27.4536 14.6081 28.4728 14.5349C29.492 14.4617 30.5154 14.5976 31.4803 14.9342C32.4451 15.2707 33.331 15.8009 34.0835 16.4922C34.8361 17.1834 35.4394 18.0212 35.8566 18.954C35.9875 19.2388 36.009 19.5619 35.9171 19.8615C35.8252 20.1612 35.6262 20.4166 35.3581 20.579C35.2057 20.6675 35.0363 20.7228 34.861 20.7412C34.6858 20.7596 34.5086 20.7408 34.3411 20.6859C34.1737 20.631 34.0197 20.5413 33.8893 20.4227C33.7589 20.3041 33.6551 20.1593 33.5847 19.9978C33.3088 19.3743 32.9083 18.8138 32.4078 18.3507C31.9074 17.8877 31.3175 17.5319 30.6744 17.3052C30.0314 17.0786 29.3488 16.9858 28.6686 17.0327C27.9884 17.0796 27.325 17.265 26.7191 17.5777C26.1132 17.8905 25.5777 18.3238 25.1454 18.8511C24.7132 19.3784 24.3933 19.9885 24.2056 20.6439C24.0178 21.2994 23.9661 21.9863 24.0536 22.6625C24.1411 23.3387 24.366 23.9898 24.7144 24.5759C24.7194 24.5821 24.7236 24.5889 24.7269 24.5962L26.8878 28.3368C26.9975 28.5269 27.0553 28.7424 27.0553 28.9618C27.0553 29.1813 26.9975 29.3968 26.8878 29.5868L21.1659 39.4978C20.83 40.0632 20.2849 40.4736 19.6485 40.6399C19.0122 40.8061 18.336 40.7149 17.7664 40.3861C17.1968 40.0572 16.7798 39.5171 16.6057 38.8829C16.4316 38.2487 16.5144 37.5714 16.8362 36.9978ZM38.8675 30.7478H36.9394L31.1659 20.7478C30.83 20.1823 30.2849 19.772 29.6485 19.6057C29.0122 19.4394 28.336 19.5306 27.7664 19.8595C27.1968 20.1884 26.7798 20.7284 26.6057 21.3627C26.4316 21.9969 26.5144 22.6742 26.8362 23.2478L32.2487 32.6228C32.3583 32.8126 32.5159 32.9703 32.7057 33.08C32.8955 33.1897 33.1108 33.2475 33.33 33.2478H38.8972C41.6925 33.2478 44.0456 35.5353 44.0003 38.3306C43.9788 39.6339 43.4491 40.8773 42.5242 41.7958C41.5993 42.7143 40.3522 43.2353 39.0487 43.2478C38.7294 43.2439 38.42 43.3591 38.1808 43.5708C37.9417 43.7825 37.7899 44.0756 37.755 44.3931C37.7405 44.5658 37.762 44.7397 37.8183 44.9036C37.8746 45.0676 37.9644 45.2181 38.0819 45.3455C38.1995 45.4729 38.3422 45.5744 38.5012 45.6437C38.6601 45.7129 38.8316 45.7484 39.005 45.7478C40.0019 45.7469 40.9888 45.5475 41.9078 45.1611C42.8269 44.7748 43.6598 44.2093 44.3579 43.4976C45.0561 42.7859 45.6055 41.9423 45.9742 41.016C46.3428 40.0897 46.5232 39.0993 46.505 38.1025C46.4206 33.9962 42.9816 30.7478 38.8737 30.7478H38.8675ZM41.5003 38.1275C41.4378 36.7821 40.2784 35.7478 38.9331 35.7478H26.9394C26.7199 35.7477 26.5043 35.8055 26.3142 35.9152C26.1241 36.0249 25.9663 36.1827 25.8566 36.3728L23.3316 40.7478C22.9907 41.3355 22.5337 41.8475 21.9884 42.2527C21.4432 42.6579 20.821 42.9478 20.16 43.1045C19.4989 43.2613 18.8129 43.2817 18.1437 43.1645C17.4746 43.0473 16.8363 42.795 16.2679 42.4229C15.6995 42.0508 15.2128 41.5668 14.8377 41.0004C14.4625 40.4341 14.2068 39.7972 14.0859 39.1286C13.9651 38.4601 13.9818 37.7739 14.135 37.1121C14.2882 36.4502 14.5746 35.8265 14.9769 35.279C15.1711 35.026 15.2641 34.7097 15.2375 34.3918C15.2109 34.074 15.0667 33.7775 14.8331 33.5603C14.704 33.4452 14.5523 33.3582 14.3878 33.3047C14.2233 33.2513 14.0495 33.2325 13.8774 33.2497C13.7052 33.2669 13.5385 33.3196 13.3878 33.4045C13.2371 33.4895 13.1057 33.6047 13.0019 33.7431C12.0377 35.0208 11.5111 36.5753 11.5003 38.1759C11.4855 39.8321 12.0193 41.4467 13.0185 42.7676C14.0177 44.0886 15.4261 45.0416 17.0238 45.4781C18.6216 45.9145 20.3189 45.8097 21.8509 45.1801C23.3828 44.5506 24.6633 43.4316 25.4925 41.9978L26.2144 40.7478H39.0003C39.339 40.7482 39.6742 40.6797 39.9856 40.5466C40.2971 40.4136 40.5782 40.2186 40.812 39.9735C41.0458 39.7285 41.2274 39.4385 41.3457 39.1212C41.464 38.8038 41.5166 38.4657 41.5003 38.1275Z" fill="#0000EE"/>
</g>
<defs>
<clipPath id="clip0_104593_18635">
<rect width="40" height="40" fill="white" transform="translate(11.875 12)"/>
</clipPath>
</defs>
</svg>
