<svg width="64" height="64" viewBox="0 0 64 64" fill="none" xmlns="http://www.w3.org/2000/svg">
<rect width="64" height="64" rx="2" fill="white" fill-opacity="0.05"/>
<g clip-path="url(#clip0_104593_18622)">
<path d="M27.9125 41.8668C27.2078 43.4074 24.8563 47.0012 18.2485 47.0012C17.9169 47.0012 17.599 46.8695 17.3646 46.635C17.1302 46.4006 16.9985 46.0827 16.9985 45.7512C16.9985 39.1434 20.5922 36.7918 22.1328 36.0871C22.2822 36.019 22.4435 35.9809 22.6076 35.9752C22.7717 35.9694 22.9353 35.996 23.0891 36.0535C23.2429 36.1109 23.3839 36.1981 23.504 36.31C23.6241 36.422 23.721 36.5565 23.7891 36.7059C23.8572 36.8552 23.8952 37.0166 23.901 37.1806C23.9068 37.3447 23.8802 37.5083 23.8227 37.6621C23.7653 37.8159 23.6781 37.9569 23.5662 38.077C23.4542 38.1971 23.3197 38.294 23.1703 38.3621C22.1656 38.8199 19.9485 40.2934 19.5578 44.4418C23.7063 44.0512 25.1828 41.834 25.6375 40.8293C25.7056 40.6799 25.8025 40.5454 25.9226 40.4335C26.0427 40.3215 26.1837 40.2343 26.3375 40.1769C26.4913 40.1194 26.6549 40.0928 26.819 40.0986C26.9831 40.1044 27.1444 40.1424 27.2938 40.2105C27.4432 40.2787 27.5776 40.3755 27.6896 40.4956C27.8015 40.6157 27.8887 40.7567 27.9462 40.9105C28.0036 41.0643 28.0302 41.2279 28.0245 41.392C28.0187 41.5561 27.9806 41.7174 27.9125 41.8668ZM46.975 19.3668C46.938 18.7573 46.6792 18.1824 46.2474 17.7507C45.8156 17.3189 45.2408 17.0601 44.6313 17.023C42.6656 16.9059 37.6422 17.0855 33.475 21.2527L25.7485 28.9855C25.6324 29.1018 25.4946 29.194 25.3429 29.257C25.1913 29.32 25.0287 29.3525 24.8644 29.3526C24.5327 29.3529 24.2145 29.2214 23.9797 28.9871C23.745 28.7528 23.6129 28.4348 23.6126 28.103C23.6123 27.7713 23.7438 27.4531 23.9781 27.2184L28.1281 23.0668C28.215 22.9794 28.2741 22.8683 28.298 22.7474C28.3219 22.6265 28.3096 22.5012 28.2625 22.3873C28.2154 22.2735 28.1357 22.176 28.0334 22.1073C27.9311 22.0386 27.8108 22.0017 27.6875 22.0012H23.6156C23.2863 21.9994 22.96 22.0632 22.6555 22.1887C22.3511 22.3143 22.0746 22.4991 21.8422 22.7324L16.4828 28.0949C16.1542 28.4234 15.9235 28.8369 15.8168 29.2892C15.7101 29.7414 15.7315 30.2144 15.8787 30.6552C16.0259 31.0959 16.293 31.4869 16.65 31.7843C17.0071 32.0816 17.4399 32.2736 17.9 32.3387L23.911 33.1777L30.8188 40.0855L31.6578 46.0996C31.7224 46.5597 31.9143 46.9926 32.2119 47.3493C32.5096 47.7061 32.9011 47.9725 33.3422 48.1184C33.5991 48.2042 33.8682 48.248 34.1391 48.248C34.4671 48.2487 34.7919 48.1844 35.095 48.0589C35.398 47.9334 35.6732 47.7491 35.9047 47.5168L41.2672 42.1574C41.4999 41.9245 41.6842 41.648 41.8097 41.3436C41.9352 41.0393 41.9993 40.7132 41.9985 40.384V36.3121C41.9982 36.1885 41.9614 36.0678 41.8926 35.9652C41.8238 35.8626 41.7262 35.7826 41.612 35.7355C41.4978 35.6883 41.3722 35.6761 41.251 35.7003C41.1299 35.7245 41.0186 35.7841 40.9313 35.8715L36.7797 40.0215C36.6583 40.143 36.5131 40.2382 36.3532 40.3012C36.1934 40.3641 36.0223 40.3934 35.8506 40.3872C35.6789 40.3811 35.5103 40.3396 35.3554 40.2654C35.2004 40.1912 35.0624 40.0858 34.95 39.9559C34.745 39.7078 34.6408 39.3917 34.6582 39.0704C34.6755 38.749 34.8132 38.446 35.0438 38.2215L42.7422 30.523C46.9125 26.3543 47.0922 21.3309 46.975 19.3637V19.3668Z" fill="#0000EE"/>
</g>
<defs>
<clipPath id="clip0_104593_18622">
<rect width="40" height="40" fill="white" transform="translate(12 12)"/>
</clipPath>
</defs>
</svg>
