<svg width="20" height="20" viewBox="0 0 20 20" fill="none" xmlns="http://www.w3.org/2000/svg">
<path d="M19.3242 3.06941C13.0937 1.62019 6.86328 4.84675 0.628906 3.39363C0.28125 3.3155 0 3.51472 0 3.86238V16.1436C0 16.4913 0.28125 16.8546 0.628906 16.9366C6.85937 18.3858 13.0898 15.1593 19.3242 16.6124C19.6719 16.6944 19.9531 16.4952 19.9531 16.1475V3.86629C19.9531 3.51472 19.6719 3.15144 19.3242 3.06941Z" fill="#005BFF"/>
<path d="M19.9531 3.85742C19.9531 3.50977 19.6719 3.14648 19.3242 3.06445C19.2852 3.05664 19.2422 3.04492 19.2031 3.03711L12.2617 7.26367V2.91992C10.7383 3.10352 9.21484 3.35352 7.69141 3.53711V7.2168L1.75781 3.60352C1.38281 3.54883 1.00781 3.47852 0.628906 3.38867C0.28125 3.31055 0 3.50977 0 3.85742V4.66992L5 7.71289H0V12.2832H5.23047L0 15.4668V16.1387C0 16.4863 0.28125 16.8496 0.628906 16.9316C0.746094 16.959 0.863281 16.9824 0.976562 17.0059L7.6875 12.916V17.0723C9.21094 16.8887 10.7344 16.6387 12.2578 16.4551V12.8652L17.9961 16.3652C18.4375 16.4238 18.8789 16.502 19.3203 16.6074C19.668 16.6895 19.9492 16.4902 19.9492 16.1426V15.4238L14.7969 12.2871H19.9492V7.7168H15.0273L19.9492 4.7207C19.9531 4.42773 19.9531 4.14258 19.9531 3.85742Z" fill="#FF0000"/>
<path d="M16.1289 12.6387L19.9531 14.9668V15.8809L14.6289 12.6387H12.625L19.043 16.5488C18.3945 16.4121 17.7422 16.3262 17.0937 16.2754L12.6133 13.5488V16.4238C12.3789 16.4512 12.1445 16.4785 11.9102 16.5098V11.9395H19.9531V12.6426H16.1289V12.6387ZM7.33984 17.123C7.57422 17.0957 7.80859 17.0684 8.04297 17.0371V11.9355H0V12.6387H3.90234L0 15.0137V15.9277L5.40234 12.6387H7.33984V12.6777L0.457031 16.8691C0.511719 16.8965 0.570312 16.9199 0.628906 16.9355C0.9375 17.0059 1.24609 17.0684 1.55469 17.1191L7.33984 13.5957V17.123ZM0 7.36523V8.06836H8.04297V3.49805C7.80859 3.5293 7.57422 3.55664 7.33984 3.58398V6.55273L2.68359 3.7168C2.01172 3.6582 1.33984 3.56055 0.667969 3.4043L7.17187 7.36523H5.16797L0 4.2168V5.13086L3.67187 7.36523H0ZM12.6133 2.88086C12.3789 2.9082 12.1445 2.93555 11.9102 2.9668V8.06836H19.9531V7.36523H16.3594L19.9531 5.17773V4.26367L14.8594 7.36523H12.8555L19.6406 3.23242C19.5469 3.1543 19.4414 3.0957 19.3242 3.06836C19.0937 3.01367 18.8672 2.9707 18.6367 2.92773L12.6133 6.5957V2.88086Z" fill="#F5F5F3"/>
</svg>
