<svg width="20" height="20" viewBox="0 0 20 20" fill="none" xmlns="http://www.w3.org/2000/svg">
<path d="M11.8837 12.8646H7.71701" stroke="white" stroke-width="1.5" stroke-miterlimit="10" stroke-linecap="round" stroke-linejoin="round"/>
<path d="M9.80035 10.8312V14.9978" stroke="white" stroke-width="1.5" stroke-miterlimit="10" stroke-linecap="round" stroke-linejoin="round"/>
<path d="M10.5486 2.09845L10.5236 2.15678L8.10696 7.76511H5.73196C5.16529 7.76511 4.62362 7.88178 4.13196 8.09011L5.59029 4.60678L5.62362 4.52345L5.68196 4.39011C5.69862 4.34011 5.71529 4.29011 5.74029 4.24845C6.83196 1.72345 8.06529 1.14845 10.5486 2.09845Z" stroke="white" stroke-width="1.5" stroke-linecap="round" stroke-linejoin="round"/>
<path d="M15.041 7.93186C14.666 7.81519 14.266 7.76519 13.866 7.76519H8.10764L10.5243 2.15686L10.5493 2.09853C10.6743 2.14019 10.791 2.19853 10.916 2.24853L12.7576 3.02353C13.7826 3.44853 14.4993 3.89019 14.9326 4.42353C15.016 4.52353 15.0826 4.61519 15.141 4.72353C15.216 4.84019 15.2743 4.95686 15.3076 5.08186C15.341 5.15686 15.366 5.23186 15.3826 5.29853C15.6076 5.99853 15.4743 6.85686 15.041 7.93186Z" stroke="white" stroke-width="1.5" stroke-linecap="round" stroke-linejoin="round"/>
<path d="M17.9337 11.8314V13.4564C17.9337 13.6231 17.9254 13.7898 17.917 13.9564C17.7587 16.8648 16.1337 18.3314 13.0504 18.3314H6.55035C6.35035 18.3314 6.15035 18.3148 5.95869 18.2898C3.30869 18.1148 1.89202 16.6981 1.71702 14.0481C1.69202 13.8564 1.67535 13.6564 1.67535 13.4564V11.8314C1.67535 10.1564 2.69202 8.71476 4.14202 8.08976C4.64202 7.88142 5.17535 7.76476 5.74202 7.76476H13.8754C14.2837 7.76476 14.6837 7.82309 15.0504 7.93142C16.7087 8.43976 17.9337 9.98976 17.9337 11.8314Z" stroke="white" stroke-width="1.5" stroke-linecap="round" stroke-linejoin="round"/>
<path d="M5.59166 4.6072L4.13332 8.09054C2.68332 8.71554 1.66666 10.1572 1.66666 11.8322V9.39054C1.66666 7.02387 3.34999 5.04887 5.59166 4.6072Z" stroke="white" stroke-width="1.5" stroke-linecap="round" stroke-linejoin="round"/>
<path d="M17.9354 9.3908V11.8325C17.9354 9.99913 16.7188 8.4408 15.0521 7.9408C15.4854 6.85747 15.6104 6.00747 15.4021 5.29913C15.3854 5.22413 15.3604 5.14913 15.3271 5.08247C16.8771 5.88247 17.9354 7.52413 17.9354 9.3908Z" stroke="white" stroke-width="1.5" stroke-linecap="round" stroke-linejoin="round"/>
</svg>
