<svg width="250" height="31" viewBox="0 0 250 31" fill="none" xmlns="http://www.w3.org/2000/svg">
<rect width="249.328" height="30.7156" fill="#005BFF"/>
<path d="M15.7099 23.9358H14.0059V9.41579H7.38191V7.85579H22.3099V9.41579H15.7099V23.9358ZM25.7072 23.9358H24.0032V7.85579H25.7072V15.0558H36.0512V7.85579H37.7552V23.9358H36.0512V16.6158H25.7072V23.9358ZM52.8598 23.9358H40.6438V7.85579H52.8598V9.41579H42.3479V15.0798H52.4999V16.6158H42.3479V22.3758H52.8598V23.9358ZM61.3557 23.9358H59.6517V7.85579H71.6997V9.41579H61.3557V15.5598H71.3397V17.0958H61.3557V23.9358ZM81.484 24.1758C76.708 24.1758 73.372 20.9118 73.372 15.8958C73.372 10.8798 76.708 7.61579 81.484 7.61579C86.308 7.61579 89.644 10.8798 89.644 15.8958C89.644 20.9118 86.308 24.1758 81.484 24.1758ZM81.484 22.5198C85.564 22.5198 87.844 20.2638 87.844 15.8958C87.844 11.5278 85.564 9.27179 81.484 9.27179C77.428 9.27179 75.172 11.5278 75.172 15.8958C75.172 20.2638 77.428 22.5198 81.484 22.5198ZM93.6291 23.9358H91.9251V7.85579H99.7971C103.157 7.85579 105.437 9.55979 105.437 12.5118C105.437 15.2238 103.445 16.9038 100.469 16.9758V17.0958C101.525 17.3838 102.125 18.0798 102.677 19.0158L105.701 23.9358H103.733L100.877 19.2798C100.061 17.9358 99.2211 17.3598 97.0851 17.3598H93.6291V23.9358ZM93.6291 9.41579V15.9918H99.7731C102.317 15.9918 103.661 14.9838 103.661 12.7038C103.661 10.4238 102.317 9.41579 99.7731 9.41579H93.6291ZM119.891 23.9358H107.675V7.85579H119.891V9.41579H109.379V15.0798H119.531V16.6158H109.379V22.3758H119.891V23.9358ZM123.141 23.9358H120.957L127.605 15.8958V15.7518L120.957 7.85579H123.141L128.997 14.7198H129.117L134.901 7.85579H137.109L130.437 15.7758V15.8958L137.109 23.9358H134.901L129.093 16.9278H128.949L123.141 23.9358ZM149.282 24.1758C144.554 24.1758 142.346 21.9198 142.346 18.8478V18.7038H144.074V19.0158C144.074 21.3198 145.514 22.5678 149.282 22.5678C152.498 22.5678 153.962 21.6798 153.962 19.8558C153.962 18.0558 152.882 17.4078 150.53 16.9278L147.122 16.2798C144.506 15.7758 142.418 14.6718 142.418 12.0078C142.418 9.82379 144.29 7.61579 148.898 7.61579C153.434 7.61579 155.45 10.0158 155.45 12.9438V13.0878H153.722V12.7998C153.722 10.4718 152.282 9.22379 148.778 9.22379C145.586 9.22379 144.146 10.1358 144.146 11.8878C144.146 13.7118 145.202 14.2638 147.578 14.7678L150.962 15.4398C153.842 15.9918 155.69 17.2158 155.69 19.7118C155.69 22.0158 153.746 24.1758 149.282 24.1758ZM159.606 23.9358H157.902V7.85579H159.606V23.9358ZM169.672 24.1758C165.088 24.1758 161.872 20.9118 161.872 15.8958C161.872 10.8798 165.208 7.61579 170.008 7.61579C174.184 7.61579 177.304 9.89579 177.304 13.4718V13.6878H175.456V13.4718C175.456 10.8078 173.536 9.27179 169.984 9.27179C165.928 9.27179 163.672 11.5278 163.672 15.8958C163.672 20.2638 165.904 22.5198 169.912 22.5198C173.728 22.5198 175.6 21.0798 175.6 17.9598V17.3598H169.216V16.0158H177.328V23.9358H175.792V20.4318H175.672C174.856 23.0238 172.528 24.1758 169.672 24.1758ZM181.59 23.9358H179.886V7.85579H181.758L190.182 18.7758L192.126 21.4638H192.27L192.222 18.8238V7.85579H193.926V23.9358H192.054L183.678 13.1358L181.662 10.4238H181.542L181.59 13.1118V23.9358ZM197.336 23.9358H195.464L202.736 7.85579H205.112L212.408 23.9358H210.488L208.328 19.2078H199.496L197.336 23.9358ZM202.952 11.5758L200.192 17.6718H207.632L204.848 11.5758L203.96 9.48779H203.816L202.952 11.5758ZM225.868 23.9358H213.964V7.85579H215.668V22.3758H225.868V23.9358ZM234.032 24.1758C229.304 24.1758 227.096 21.9198 227.096 18.8478V18.7038H228.824V19.0158C228.824 21.3198 230.264 22.5678 234.032 22.5678C237.248 22.5678 238.712 21.6798 238.712 19.8558C238.712 18.0558 237.632 17.4078 235.28 16.9278L231.872 16.2798C229.256 15.7758 227.168 14.6718 227.168 12.0078C227.168 9.82379 229.04 7.61579 233.648 7.61579C238.184 7.61579 240.2 10.0158 240.2 12.9438V13.0878H238.472V12.7998C238.472 10.4718 237.032 9.22379 233.528 9.22379C230.336 9.22379 228.896 10.1358 228.896 11.8878C228.896 13.7118 229.952 14.2638 232.328 14.7678L235.712 15.4398C238.592 15.9918 240.44 17.2158 240.44 19.7118C240.44 22.0158 238.496 24.1758 234.032 24.1758Z" fill="white"/>
</svg>
