<svg width="20" height="20" viewBox="0 0 20 20" fill="none" xmlns="http://www.w3.org/2000/svg">
<path d="M18.332 17.4999H3.33203C2.8737 17.4999 2.4987 17.1249 2.4987 16.6666V1.66659C2.4987 1.20825 2.1237 0.833252 1.66536 0.833252C1.20703 0.833252 0.832031 1.20825 0.832031 1.66659V16.6666C0.832031 18.0416 1.95703 19.1666 3.33203 19.1666H18.332C18.7904 19.1666 19.1654 18.7916 19.1654 18.3333C19.1654 17.8749 18.7904 17.4999 18.332 17.4999Z" fill="white"/>
<path d="M19.1091 1.37537C19.1091 1.37537 19.0841 1.32537 19.0674 1.30037C19.0341 1.23371 19.0008 1.18371 18.9508 1.12537C18.9341 1.10037 18.9174 1.08371 18.8924 1.05871C18.8258 1.00037 18.7508 0.950374 18.6674 0.908708C18.6674 0.908708 18.6591 0.900374 18.6508 0.900374C18.5591 0.858708 18.4591 0.850374 18.3591 0.842041C18.3508 0.842041 18.3424 0.842041 18.3258 0.842041H13.3258C12.8674 0.842041 12.4924 1.21704 12.4924 1.67537C12.4924 2.13371 12.8674 2.50871 13.3258 2.50871H16.3174L9.40911 9.41704C9.08411 9.74204 9.08411 10.267 9.40911 10.592L12.9841 14.167H5.00911C4.55078 14.167 4.17578 14.542 4.17578 15.0004C4.17578 15.4587 4.55078 15.8337 5.00911 15.8337H15.0008C15.3341 15.8337 15.6424 15.6337 15.7674 15.317C15.8924 15.0087 15.8258 14.6504 15.5841 14.4087L11.1758 10.0004L17.4924 3.68371V6.67537C17.4924 7.13371 17.8674 7.50871 18.3258 7.50871C18.7841 7.50871 19.1591 7.13371 19.1591 6.67537V1.66704C19.1591 1.56704 19.1341 1.46704 19.1008 1.37537H19.1091Z" fill="white"/>
</svg>
