<svg width="60" height="60" viewBox="0 0 60 60" fill="none" xmlns="http://www.w3.org/2000/svg">
<g clip-path="url(#clip0_104597_5450)">
<path d="M59.8203 -0.115479H-0.179688V60.6254H59.8203V-0.115479Z" fill="#00FF2A"/>
<path d="M33.3713 32.7419C33.1713 32.7558 32.1425 32.8165 29.8512 32.8165C28.0188 32.8165 26.7338 32.7647 26.28 32.7419C19.235 32.4268 13.98 31.1879 13.98 29.7048C13.98 28.2217 19.24 26.9766 26.28 26.6678V31.5182C26.7388 31.5511 28.0613 31.6308 29.8838 31.6308C32.0725 31.6308 33.1675 31.5372 33.3713 31.5182V26.6615C40.4025 26.9804 45.6437 28.2205 45.6437 29.6985C45.6437 31.1765 40.3938 32.4217 33.3713 32.7356M33.3713 26.1477V21.8199H43.1875V15.2042H16.475V21.8199H26.285V26.1591C18.3125 26.5299 12.3125 28.1268 12.3125 30.0414C12.3125 31.956 18.3125 33.5543 26.2788 33.9289V47.8385H33.37V33.9301C41.3287 33.5593 47.3125 31.9624 47.3125 30.0465C47.3125 28.1306 41.3287 26.5337 33.37 26.1629" fill="white"/>
</g>
<defs>
<clipPath id="clip0_104597_5450">
<rect width="60" height="60" fill="white"/>
</clipPath>
</defs>
</svg>
