<svg width="60" height="60" viewBox="0 0 60 60" fill="none" xmlns="http://www.w3.org/2000/svg">
<g clip-path="url(#clip0_104597_5377)">
<path d="M59.4766 0H-0.523438V60H59.4766V0Z" fill="#7396FF"/>
<path opacity="0.61" d="M34.9367 20.1016C38.2914 20.1016 40.8814 20.8292 42.7067 22.2846C43.6153 23.0197 44.337 23.9594 44.8129 25.0269C45.2887 26.0944 45.5052 27.2594 45.4447 28.4266C45.4892 30.4395 44.9423 32.4213 43.8717 34.1266C42.7785 35.7934 41.223 37.1053 39.3957 37.9016C37.2675 38.8286 34.9635 39.2831 32.6427 39.2336H27.4627L26.1307 46.0016H18.8047L23.9847 20.1016H34.9367ZM32.9757 33.4586C34.3258 33.548 35.6619 33.14 36.7317 32.3116C37.1784 31.9003 37.528 31.3947 37.7551 30.8315C37.9822 30.2684 38.0811 29.6617 38.0447 29.0556C38.0758 28.6022 37.9961 28.148 37.8125 27.7323C37.6289 27.3166 37.3468 26.9519 36.9907 26.6696C36.0984 26.0835 35.0401 25.8028 33.9747 25.8696H30.1267L28.6097 33.4546L32.9757 33.4586Z" fill="#7396FF"/>
<path d="M32.0806 16C35.7073 16 38.5073 16.7867 40.4806 18.36C41.4629 19.1548 42.2431 20.1707 42.7575 21.3248C43.272 22.4788 43.5061 23.7382 43.4406 25C43.4885 27.1754 42.8975 29.3171 41.7406 31.16C40.5584 32.9617 38.8764 34.3796 36.9006 35.24C34.6 36.2421 32.1095 36.7334 29.6006 36.68H24.0006L22.5606 44H14.6406L20.2406 16H32.0806ZM29.9606 30.44C31.42 30.5365 32.8642 30.0954 34.0206 29.2C34.5037 28.7554 34.8818 28.2089 35.1274 27.6001C35.373 26.9912 35.48 26.3353 35.4406 25.68C35.4743 25.1897 35.3881 24.6986 35.1895 24.2491C34.9909 23.7996 34.6858 23.4052 34.3006 23.1C33.3356 22.4683 32.1917 22.1665 31.0406 22.24H26.8806L25.2406 30.44H29.9606Z" fill="white"/>
<path d="M24.6497 47.6881C22.7722 47.6918 20.897 47.5561 19.0397 47.2821C17.339 47.033 15.6628 46.6381 14.0297 46.102C16.4937 46.6074 19.0034 46.8564 21.5187 46.845C25.0018 46.834 28.4719 46.4216 31.8606 45.616C41.3966 43.377 49.5177 38.296 53.0547 32.357C53.8927 31.0792 54.4628 29.6447 54.7306 28.1402C54.9984 26.6357 54.9583 25.0925 54.6127 23.604C53.5537 19.604 49.9677 16.404 44.5127 14.585C46.147 14.9219 47.7465 15.4097 49.2907 16.0421C50.6777 16.6078 51.9935 17.3347 53.2107 18.208C54.3092 18.9948 55.2802 19.946 56.0896 21.028C56.8505 22.0533 57.4114 23.2129 57.7427 24.446C58.1168 25.8776 58.1667 27.3746 57.8887 28.828C57.5851 30.3741 57.0095 31.8541 56.1886 33.1991C54.1144 36.4309 51.3214 39.1396 48.0276 41.114C46.1156 42.3191 44.1027 43.3564 42.0116 44.2141C39.7368 45.1491 37.3906 45.8998 34.9956 46.4591C31.6056 47.265 28.1341 47.6773 24.6497 47.6881ZM14.0226 46.101C12.391 45.7645 10.7943 45.2774 9.25269 44.6461C7.86517 44.0806 6.54908 43.3535 5.33167 42.4801C4.23311 41.6932 3.26207 40.742 2.45265 39.66C1.69179 38.6346 1.13105 37.4751 0.799691 36.242C0.425473 34.8104 0.375597 33.3134 0.653695 31.8601C0.957114 30.3139 1.53267 28.8338 2.35365 27.489C4.42793 24.2572 7.22091 21.5485 10.5147 19.5741C12.4267 18.3689 14.4396 17.3317 16.5306 16.4741C18.8054 15.5391 21.1516 14.7882 23.5466 14.229C26.935 13.4234 30.4049 13.0111 33.8877 13.0001C35.7652 12.9963 37.6403 13.1319 39.4977 13.406C41.1984 13.655 42.8746 14.0499 44.5077 14.586C42.0434 14.0802 39.5334 13.8308 37.0177 13.842C33.5346 13.8531 30.0644 14.2655 26.6757 15.071C17.1397 17.31 9.01867 22.391 5.48267 28.33C4.64463 29.6079 4.07444 31.0424 3.80665 32.5468C3.53886 34.0513 3.57905 35.5944 3.92469 37.083C4.98269 41.083 8.56671 44.2831 14.0177 46.0991L14.0226 46.101Z" fill="white"/>
</g>
<defs>
<clipPath id="clip0_104597_5377">
<rect width="60" height="60" fill="white"/>
</clipPath>
</defs>
</svg>
