<svg width="60" height="60" viewBox="0 0 60 60" fill="none" xmlns="http://www.w3.org/2000/svg">
<g clip-path="url(#clip0_104597_5400)">
<rect width="60" height="60" fill="white" fill-opacity="0.1"/>
<path d="M59.1562 0H-0.84375V60H59.1562V0Z" fill="#0A0A0C" fill-opacity="0.04"/>
<path d="M21.3017 40.2559L14.5917 30.1659C14.1787 29.4841 14.053 28.6663 14.2424 27.892C14.4318 27.1177 14.9206 26.4501 15.6017 26.0359L29.7517 17.4359C30.4327 17.0236 31.2491 16.8973 32.0228 17.0847C32.7965 17.272 33.4648 17.7578 33.8817 18.4359L37.5617 24.4959L38.7417 26.6059" fill="#F5F5F3"/>
<path fill-rule="evenodd" clip-rule="evenodd" d="M31.3767 19.9486L31.9878 25.1291L30.7884 25.8216L27.7657 22.9341L27.5291 22.7243L27.536 22.7203L27.5566 22.7199C28.3329 22.6952 29.1047 22.847 29.8139 23.1637C30.1101 23.5008 30.3837 23.8047 30.7028 24.1193L30.1755 20.6421L31.3767 19.9486Z" fill="#005BFF"/>
<path fill-rule="evenodd" clip-rule="evenodd" d="M26.0799 22.9522L27.9972 21.8452C28.099 21.7697 28.2246 21.7333 28.351 21.7429C28.4774 21.7524 28.5961 21.8072 28.6854 21.8971L29.8141 23.168C29.1062 22.8503 28.3356 22.6971 27.5601 22.72L27.5395 22.7204L27.4183 22.7245C26.9646 22.7462 26.5152 22.8226 26.0799 22.9522Z" fill="url(#paint0_linear_104597_5400)"/>
<path d="M40.6706 42.1846H24.1016C23.3059 42.1846 22.5429 41.8685 21.9802 41.3059C21.4176 40.7433 21.1016 39.9802 21.1016 39.1846V29.6016C21.1016 28.8059 21.4176 28.0429 21.9802 27.4802C22.5429 26.9176 23.3059 26.6016 24.1016 26.6016H40.6706C41.4662 26.6016 42.2293 26.9176 42.7919 27.4802C43.3545 28.0429 43.6706 28.8059 43.6706 29.6016V39.1846C43.6706 39.9802 43.3545 40.7433 42.7919 41.3059C42.2293 41.8685 41.4662 42.1846 40.6706 42.1846Z" fill="#F5F5F3"/>
<path d="M43.6726 30.0312H21.1016V33.1642H43.6726V30.0312Z" fill="white"/>
<path d="M41.6016 37.2422H38.9766" stroke="white" stroke-width="0.5" stroke-linecap="round" stroke-linejoin="round"/>
<path d="M41.6016 38.3672H38.9766" stroke="white" stroke-width="0.5" stroke-linecap="round" stroke-linejoin="round"/>
<path d="M41.6016 39.5312H38.9766" stroke="white" stroke-width="0.5" stroke-linecap="round" stroke-linejoin="round"/>
<path d="M30.6088 34.7305C30.0905 34.7307 29.5835 34.8822 29.1501 35.1664C28.7166 35.4506 28.3756 35.8552 28.1688 36.3305C27.9243 35.7692 27.494 35.3093 26.9502 35.0281C26.4064 34.7469 25.7824 34.6616 25.1831 34.7865C24.5838 34.9114 24.0458 35.2388 23.6595 35.7138C23.2733 36.1888 23.0625 36.7823 23.0625 37.3945C23.0625 38.0067 23.2733 38.6001 23.6595 39.0751C24.0458 39.5501 24.5838 39.8776 25.1831 40.0025C25.7824 40.1273 26.4064 40.042 26.9502 39.7608C27.494 39.4796 27.9243 39.0197 28.1688 38.4585C28.3608 38.8986 28.6683 39.2785 29.0586 39.5582C29.4489 39.8378 29.9075 40.0068 30.386 40.0471C30.8645 40.0874 31.3449 39.9976 31.7765 39.7872C32.2081 39.5768 32.5748 39.2536 32.8377 38.8518C33.1007 38.4501 33.2501 37.9847 33.2702 37.505C33.2903 37.0252 33.1804 36.549 32.9519 36.1266C32.7235 35.7043 32.3852 35.3516 31.9727 35.1058C31.5602 34.86 31.0889 34.7303 30.6088 34.7305Z" fill="url(#paint1_linear_104597_5400)"/>
<path d="M40.6706 42.1846H24.1016C23.3059 42.1846 22.5429 41.8685 21.9802 41.3059C21.4176 40.7433 21.1016 39.9802 21.1016 39.1846V29.6016C21.1016 28.8059 21.4176 28.0429 21.9802 27.4802C22.5429 26.9176 23.3059 26.6016 24.1016 26.6016H40.6706C41.4662 26.6016 42.2293 26.9176 42.7919 27.4802C43.3545 28.0429 43.6706 28.8059 43.6706 29.6016V39.1846C43.6706 39.9802 43.3545 40.7433 42.7919 41.3059C42.2293 41.8685 41.4662 42.1846 40.6706 42.1846Z" stroke="white" stroke-width="0.5" stroke-linecap="round" stroke-linejoin="round"/>
<path d="M43.6726 30.0312H21.1016" stroke="white" stroke-width="0.5" stroke-linecap="round" stroke-linejoin="round"/>
<path d="M43.6726 33.1641H21.1016" stroke="white" stroke-width="0.5" stroke-linecap="round" stroke-linejoin="round"/>
<path d="M22.0569 41.3772L22.0469 41.3672" stroke="white" stroke-width="0.5" stroke-linecap="round" stroke-linejoin="round"/>
<path d="M21.3017 40.2559L14.5917 30.1659C14.1787 29.4841 14.053 28.6663 14.2424 27.892C14.4318 27.1177 14.9206 26.4501 15.6017 26.0359L29.7517 17.4359C30.4327 17.0236 31.2491 16.8973 32.0228 17.0847C32.7965 17.272 33.4648 17.7578 33.8817 18.4359L37.5617 24.4959L38.7417 26.6059" stroke="white" stroke-width="0.5" stroke-linecap="round" stroke-linejoin="round"/>
<path d="M16.4283 30.6934C16.4283 30.6934 14.4773 28.5654 16.2803 27.1754L22.0573 23.6484" stroke="white" stroke-width="0.5" stroke-linecap="round" stroke-linejoin="round"/>
<path d="M23.3516 22.9017L23.9546 22.4727" stroke="white" stroke-width="0.5" stroke-linecap="round" stroke-linejoin="round"/>
<path d="M37.1612 26.6027L35.5312 23.9727" stroke="white" stroke-width="0.5" stroke-linecap="round" stroke-linejoin="round"/>
<path d="M25.7125 40.0461C27.1761 40.0461 28.3625 38.8596 28.3625 37.3961C28.3625 35.9325 27.1761 34.7461 25.7125 34.7461C24.2489 34.7461 23.0625 35.9325 23.0625 37.3961C23.0625 38.8596 24.2489 40.0461 25.7125 40.0461Z" fill="#FF0000"/>
</g>
<defs>
<linearGradient id="paint0_linear_104597_5400" x1="27.2705" y1="21.8953" x2="28.4576" y2="23.9512" gradientUnits="userSpaceOnUse">
<stop offset="0.256001" stop-color="#E2562C"/>
<stop offset="1" stop-color="white" stop-opacity="0"/>
</linearGradient>
<linearGradient id="paint1_linear_104597_5400" x1="28.1566" y1="33.9108" x2="28.1566" y2="40.0585" gradientUnits="userSpaceOnUse">
<stop offset="0.256001" stop-color="#E2562C"/>
<stop offset="1" stop-color="white" stop-opacity="0"/>
</linearGradient>
<clipPath id="clip0_104597_5400">
<rect width="60" height="60" fill="white"/>
</clipPath>
</defs>
</svg>
