<svg width="60" height="60" viewBox="0 0 60 60" fill="none" xmlns="http://www.w3.org/2000/svg">
<g clip-path="url(#clip0_104597_5389)">
<path d="M59.6562 0H-0.34375V60H59.6562V0Z" fill="url(#paint0_linear_104597_5389)"/>
<path d="M42.805 26.5685C43.3475 22.8835 40.555 20.9198 36.7175 19.586L37.9675 14.621L34.9338 13.871L33.7238 18.7135L31.3025 18.1348L32.53 13.2598L29.495 12.5098L28.245 17.4923L26.315 17.036V17.0198L22.1225 15.966L21.315 19.216C21.315 19.216 23.565 19.7435 23.525 19.7598C23.9407 19.8115 24.32 20.0232 24.5823 20.3499C24.8446 20.6766 24.9693 21.0927 24.93 21.5098L23.5238 27.1823L23.84 27.2873L23.5063 27.216L21.5238 35.1648C21.4812 35.3033 21.4112 35.4319 21.3178 35.5427C21.2245 35.6536 21.1097 35.7445 20.9804 35.81C20.8511 35.8754 20.7099 35.9141 20.5653 35.9238C20.4207 35.9334 20.2756 35.9138 20.1388 35.866C20.1738 35.9185 17.945 35.3398 17.945 35.3398L16.4375 38.7973L20.385 39.7785L22.5425 40.341L21.2737 45.376L24.3088 46.126L25.5375 41.1435L27.975 41.7748L26.725 46.7398L29.7587 47.4898L31.0087 42.4548C36.1838 43.436 40.08 43.051 41.7125 38.366C43.0275 34.5948 41.6412 32.436 38.9225 30.9985C39.9685 30.794 40.9162 30.2462 41.6155 29.4418C42.3147 28.6375 42.7255 27.6228 42.7825 26.5585H42.8L42.805 26.5685ZM35.875 36.2873C34.945 40.0598 28.595 38.006 26.5425 37.5148L28.2087 30.831C30.2612 31.3573 36.8575 32.3573 35.875 36.2685V36.2873ZM36.805 26.5148C35.9625 29.936 30.665 28.1985 28.9625 27.7785L30.47 21.726C32.1912 22.1485 37.7 22.9548 36.805 26.516V26.5148Z" fill="white"/>
</g>
<defs>
<linearGradient id="paint0_linear_104597_5389" x1="29.5918" y1="-9.23077" x2="29.5918" y2="60" gradientUnits="userSpaceOnUse">
<stop offset="0.256001" stop-color="#E2562C"/>
<stop offset="1" stop-color="white" stop-opacity="0"/>
</linearGradient>
<clipPath id="clip0_104597_5389">
<rect width="60" height="60" fill="white"/>
</clipPath>
</defs>
</svg>
