<svg width="60" height="60" viewBox="0 0 60 60" fill="none" xmlns="http://www.w3.org/2000/svg">
<g clip-path="url(#clip0_104597_5436)">
<path d="M59.4844 0H-0.515625V60H59.4844V0Z" fill="#005BFF"/>
<g opacity="0.39">
<path d="M40.0614 24.8836V37.9646C40.0614 38.3115 39.9236 38.6442 39.6783 38.8895C39.433 39.1348 39.1003 39.2726 38.7534 39.2726H15.2064C14.8595 39.2726 14.5268 39.1348 14.2815 38.8895C14.0362 38.6442 13.8984 38.3115 13.8984 37.9646V24.8836H40.0614ZM40.0614 22.2676H13.8984V17.0346C13.8984 16.6877 14.0362 16.355 14.2815 16.1097C14.5268 15.8644 14.8595 15.7266 15.2064 15.7266H38.7534C39.1003 15.7266 39.433 15.8644 39.6783 16.1097C39.9236 16.355 40.0614 16.6877 40.0614 17.0346V22.2676ZM30.9044 32.7326V35.3486H36.1374V32.7326H30.9044Z" fill="white"/>
</g>
<path d="M45.0614 29.8836V42.9646C45.0614 43.3115 44.9236 43.6442 44.6783 43.8895C44.433 44.1348 44.1003 44.2726 43.7534 44.2726H20.2064C19.8595 44.2726 19.5268 44.1348 19.2815 43.8895C19.0362 43.6442 18.8984 43.3115 18.8984 42.9646V29.8836H45.0614ZM45.0614 27.2676H18.8984V22.0346C18.8984 21.6877 19.0362 21.355 19.2815 21.1097C19.5268 20.8644 19.8595 20.7266 20.2064 20.7266H43.7534C44.1003 20.7266 44.433 20.8644 44.6783 21.1097C44.9236 21.355 45.0614 21.6877 45.0614 22.0346V27.2676ZM35.9044 37.7326V40.3486H41.1374V37.7326H35.9044Z" fill="white"/>
</g>
<defs>
<clipPath id="clip0_104597_5436">
<rect width="60" height="60" fill="white"/>
</clipPath>
</defs>
</svg>
