<svg width="56" height="56" viewBox="0 0 56 56" fill="none" xmlns="http://www.w3.org/2000/svg">
<path d="M3.5 28C3.5 34.4978 6.08124 40.7295 10.6759 45.3241C15.2705 49.9188 21.5022 52.5 28 52.5C34.4978 52.5 40.7295 49.9188 45.3241 45.3241C49.9188 40.7295 52.5 34.4978 52.5 28C52.5 21.5022 49.9188 15.2705 45.3241 10.6759C40.7295 6.08124 34.4978 3.5 28 3.5C21.5022 3.5 15.2705 6.08124 10.6759 10.6759C6.08124 15.2705 3.5 21.5022 3.5 28Z" fill="#CCCCCC" fill-opacity="0.1"/>
<path d="M3.5 28C3.5 34.4978 6.08124 40.7295 10.6759 45.3241C15.2705 49.9188 21.5022 52.5 28 52.5C34.4978 52.5 40.7295 49.9188 45.3241 45.3241C49.9188 40.7295 52.5 34.4978 52.5 28C52.5 21.5022 49.9188 15.2705 45.3241 10.6759C40.7295 6.08124 34.4978 3.5 28 3.5C21.5022 3.5 15.2705 6.08124 10.6759 10.6759C6.08124 15.2705 3.5 21.5022 3.5 28Z" stroke="white" stroke-width="3.5" stroke-linejoin="round"/>
<path d="M17.5 28C17.5 21.5022 18.6062 15.2705 20.5754 10.6759C22.5445 6.08124 25.2152 3.5 28 3.5C30.7848 3.5 33.4555 6.08124 35.4246 10.6759C37.3938 15.2705 38.5 21.5022 38.5 28C38.5 34.4978 37.3938 40.7295 35.4246 45.3241C33.4555 49.9188 30.7848 52.5 28 52.5C25.2152 52.5 22.5445 49.9188 20.5754 45.3241C18.6062 40.7295 17.5 34.4978 17.5 28Z" stroke="white" stroke-width="3.5" stroke-linejoin="round"/>
<path d="M5.25 36.1654H50.75M5.25 19.832H50.75" stroke="white" stroke-width="3.5" stroke-linecap="round" stroke-linejoin="round"/>
</svg>
