<svg width="16" height="16" viewBox="0 0 16 16" fill="none" xmlns="http://www.w3.org/2000/svg">
<path d="M15.4594 2.45553C10.475 1.29615 5.49063 3.8774 0.503125 2.7149C0.225 2.6524 0 2.81178 0 3.0899V12.9149C0 13.193 0.225 13.4837 0.503125 13.5493C5.4875 14.7087 10.4719 12.1274 15.4594 13.2899C15.7375 13.3555 15.9625 13.1962 15.9625 12.918V3.09303C15.9625 2.81178 15.7375 2.52115 15.4594 2.45553Z" fill="#7396FF"/>
<path d="M15.9625 3.08594C15.9625 2.80781 15.7375 2.51719 15.4594 2.45156C15.4281 2.44531 15.3938 2.43594 15.3625 2.42969L9.80937 5.81094V2.33594C8.59062 2.48281 7.37187 2.68281 6.15312 2.82969V5.77344L1.40625 2.88281C1.10625 2.83906 0.80625 2.78281 0.503125 2.71094C0.225 2.64844 0 2.80781 0 3.08594V3.73594L4 6.17031H0V9.82656H4.18437L0 12.3734V12.9109C0 13.1891 0.225 13.4797 0.503125 13.5453C0.596875 13.5672 0.690625 13.5859 0.78125 13.6047L6.15 10.3328V13.6578C7.36875 13.5109 8.5875 13.3109 9.80625 13.1641V10.2922L14.3969 13.0922C14.75 13.1391 15.1031 13.2016 15.4563 13.2859C15.7344 13.3516 15.9594 13.1922 15.9594 12.9141V12.3391L11.8375 9.82969H15.9594V6.17344H12.0219L15.9594 3.77656C15.9625 3.54219 15.9625 3.31406 15.9625 3.08594Z" fill="#FF0000"/>
<path d="M12.9031 10.1109L15.9625 11.9734V12.7047L11.7031 10.1109H10.1L15.2344 13.2391C14.7156 13.1297 14.1938 13.0609 13.675 13.0203L10.0906 10.8391V13.1391C9.90312 13.1609 9.71562 13.1828 9.52812 13.2078V9.55156H15.9625V10.1141H12.9031V10.1109ZM5.87187 13.6984C6.05937 13.6766 6.24687 13.6547 6.43437 13.6297V9.54844H0V10.1109H3.12188L0 12.0109V12.7422L4.32188 10.1109H5.87187V10.1422L0.365625 13.4953C0.409375 13.5172 0.45625 13.5359 0.503125 13.5484C0.75 13.6047 0.996875 13.6547 1.24375 13.6953L5.87187 10.8766V13.6984ZM0 5.89219V6.45469H6.43437V2.79844C6.24687 2.82344 6.05937 2.84531 5.87187 2.86719V5.24219L2.14687 2.97344C1.60937 2.92656 1.07188 2.84844 0.534375 2.72344L5.7375 5.89219H4.13438L0 3.37344V4.10469L2.9375 5.89219H0ZM10.0906 2.30469C9.90312 2.32656 9.71562 2.34844 9.52812 2.37344V6.45469H15.9625V5.89219H13.0875L15.9625 4.14219V3.41094L11.8875 5.89219H10.2844L15.7125 2.58594C15.6375 2.52344 15.5531 2.47656 15.4594 2.45469C15.275 2.41094 15.0938 2.37656 14.9094 2.34219L10.0906 5.27656V2.30469Z" fill="#F5F5F3"/>
</svg>
