<svg width="251" height="31" viewBox="0 0 251 31" fill="none" xmlns="http://www.w3.org/2000/svg">
<rect width="251" height="31" fill="#005BFF"/>
<path d="M17.0451 24H15.3411V9.48H8.71713V7.92H23.6451V9.48H17.0451V24ZM27.0424 24H25.3384V7.92H27.0424V15.12H37.3864V7.92H39.0904V24H37.3864V16.68H27.0424V24ZM54.1951 24H41.9791V7.92H54.1951V9.48H43.6831V15.144H53.8351V16.68H43.6831V22.44H54.1951V24ZM62.6909 24H60.9869V7.92H73.0349V9.48H62.6909V15.624H72.6749V17.16H62.6909V24ZM82.8192 24.24C78.0432 24.24 74.7072 20.976 74.7072 15.96C74.7072 10.944 78.0432 7.68 82.8192 7.68C87.6432 7.68 90.9792 10.944 90.9792 15.96C90.9792 20.976 87.6432 24.24 82.8192 24.24ZM82.8192 22.584C86.8992 22.584 89.1792 20.328 89.1792 15.96C89.1792 11.592 86.8992 9.336 82.8192 9.336C78.7632 9.336 76.5072 11.592 76.5072 15.96C76.5072 20.328 78.7632 22.584 82.8192 22.584ZM94.9643 24H93.2603V7.92H101.132C104.492 7.92 106.772 9.624 106.772 12.576C106.772 15.288 104.78 16.968 101.804 17.04V17.16C102.86 17.448 103.46 18.144 104.012 19.08L107.036 24H105.068L102.212 19.344C101.396 18 100.556 17.424 98.4203 17.424H94.9643V24ZM94.9643 9.48V16.056H101.108C103.652 16.056 104.996 15.048 104.996 12.768C104.996 10.488 103.652 9.48 101.108 9.48H94.9643ZM121.226 24H109.01V7.92H121.226V9.48H110.714V15.144H120.866V16.68H110.714V22.44H121.226V24ZM124.476 24H122.292L128.94 15.96V15.816L122.292 7.92H124.476L130.332 14.784H130.452L136.236 7.92H138.444L131.772 15.84V15.96L138.444 24H136.236L130.428 16.992H130.284L124.476 24ZM150.618 24.24C145.89 24.24 143.682 21.984 143.682 18.912V18.768H145.41V19.08C145.41 21.384 146.85 22.632 150.618 22.632C153.834 22.632 155.298 21.744 155.298 19.92C155.298 18.12 154.218 17.472 151.866 16.992L148.458 16.344C145.842 15.84 143.754 14.736 143.754 12.072C143.754 9.888 145.626 7.68 150.234 7.68C154.77 7.68 156.786 10.08 156.786 13.008V13.152H155.057V12.864C155.057 10.536 153.618 9.288 150.114 9.288C146.922 9.288 145.482 10.2 145.482 11.952C145.482 13.776 146.538 14.328 148.914 14.832L152.298 15.504C155.178 16.056 157.026 17.28 157.026 19.776C157.026 22.08 155.082 24.24 150.618 24.24ZM160.941 24H159.237V7.92H160.941V24ZM171.007 24.24C166.423 24.24 163.207 20.976 163.207 15.96C163.207 10.944 166.543 7.68 171.343 7.68C175.519 7.68 178.639 9.96 178.639 13.536V13.752H176.791V13.536C176.791 10.872 174.871 9.336 171.319 9.336C167.263 9.336 165.007 11.592 165.007 15.96C165.007 20.328 167.239 22.584 171.247 22.584C175.063 22.584 176.935 21.144 176.935 18.024V17.424H170.551V16.08H178.663V24H177.127V20.496H177.007C176.191 23.088 173.863 24.24 171.007 24.24ZM182.925 24H181.221V7.92H183.093L191.517 18.84L193.461 21.528H193.605L193.557 18.888V7.92H195.261V24H193.389L185.013 13.2L182.997 10.488H182.877L182.925 13.176V24ZM198.672 24H196.8L204.072 7.92H206.448L213.744 24H211.824L209.664 19.272H200.832L198.672 24ZM204.288 11.64L201.528 17.736H208.968L206.184 11.64L205.296 9.552H205.152L204.288 11.64ZM227.203 24H215.299V7.92H217.003V22.44H227.203V24ZM235.368 24.24C230.64 24.24 228.432 21.984 228.432 18.912V18.768H230.16V19.08C230.16 21.384 231.6 22.632 235.368 22.632C238.584 22.632 240.048 21.744 240.048 19.92C240.048 18.12 238.968 17.472 236.616 16.992L233.208 16.344C230.592 15.84 228.504 14.736 228.504 12.072C228.504 9.888 230.376 7.68 234.984 7.68C239.52 7.68 241.536 10.08 241.536 13.008V13.152H239.807V12.864C239.807 10.536 238.368 9.288 234.864 9.288C231.672 9.288 230.232 10.2 230.232 11.952C230.232 13.776 231.288 14.328 233.664 14.832L237.048 15.504C239.928 16.056 241.776 17.28 241.776 19.776C241.776 22.08 239.832 24.24 235.368 24.24Z" fill="white"/>
</svg>
