<svg width="14" height="14" viewBox="0 0 14 14" fill="none" xmlns="http://www.w3.org/2000/svg">
<path d="M3 0C2.20435 0 1.44129 0.316071 0.87868 0.87868C0.316071 1.44129 0 2.20435 0 3V11C0 11.7956 0.316071 12.5587 0.87868 13.1213C1.44129 13.6839 2.20435 14 3 14H11C11.7956 14 12.5587 13.6839 13.1213 13.1213C13.6839 12.5587 14 11.7956 14 11V3C14 2.20435 13.6839 1.44129 13.1213 0.87868C12.5587 0.316071 11.7956 0 11 0H3ZM1 3C1 2.46957 1.21071 1.96086 1.58579 1.58579C1.96086 1.21071 2.46957 1 3 1H11C11.5304 1 12.0391 1.21071 12.4142 1.58579C12.7893 1.96086 13 2.46957 13 3V11C13 11.5304 12.7893 12.0391 12.4142 12.4142C12.0391 12.7893 11.5304 13 11 13H3C2.46957 13 1.96086 12.7893 1.58579 12.4142C1.21071 12.0391 1 11.5304 1 11V3ZM10.854 4.854C10.9479 4.76011 11.0006 4.63278 11.0006 4.5C11.0006 4.36722 10.9479 4.23989 10.854 4.146C10.7601 4.05211 10.6328 3.99937 10.5 3.99937C10.3672 3.99937 10.2399 4.05211 10.146 4.146L5.5 8.793L3.854 7.146C3.76011 7.05211 3.63278 6.99937 3.5 6.99937C3.36722 6.99937 3.23989 7.05211 3.146 7.146C3.05211 7.23989 2.99937 7.36722 2.99937 7.5C2.99937 7.63278 3.05211 7.76011 3.146 7.854L5.146 9.854C5.19245 9.90056 5.24762 9.93751 5.30837 9.96271C5.36911 9.98792 5.43423 10.0009 5.5 10.0009C5.56577 10.0009 5.63089 9.98792 5.69163 9.96271C5.75238 9.93751 5.80755 9.90056 5.854 9.854L10.854 4.854Z" fill="white"/>
</svg>
